<?xml version="1.0" encoding="iso-8859-1"?>
<!-- Generator: Adobe Illustrator 19.0.0, SVG Export Plug-In . SVG Version: 6.00 Build 0)  -->
<svg version="1.1" id="Capa_1" xmlns="http://www.w3.org/2000/svg" xmlns:xlink="http://www.w3.org/1999/xlink" x="0px" y="0px"
	 viewBox="0 0 422.4 422.4" style="enable-background:new 0 0 422.4 422.4;" xml:space="preserve">
<g>
	<g>
		<path d="M331.2,92H92C41.6,92,0,145.6,0,211.2s41.6,119.2,92,119.2c32,0,62.4-21.6,78.4-56.8H252c16.8,35.2,46.4,56.8,78.4,56.8
			c50.4,0,92-53.6,92-119.2S381.6,92,331.2,92z M331.2,314.4c-27.2,0-52.8-20-66.4-52c-1.6-3.2-4-4.8-7.2-4.8h-92
			c-3.2,0-6.4,1.6-7.2,4.8c-13.6,32-39.2,52-66.4,52c-41.6,0-76-46.4-76-103.2S50.4,108,92,108h239.2c41.6,0,76,46.4,76,103.2
			S372.8,314.4,331.2,314.4z"/>
	</g>
</g>
<g>
	<g>
		<path d="M137.6,184.8H98.4v-39.2c0-4.8-3.2-8-8-8s-8,3.2-8,8v39.2H43.2c-4.8,0-8,3.2-8,8s3.2,8,8,8h39.2V240c0,4.8,3.2,8,8,8
			s8-3.2,8-8v-39.2h39.2c4.8,0,8-3.2,8-8S142.4,184.8,137.6,184.8z"/>
	</g>
</g>
<g>
	<g>
		<path d="M317.6,122.4c-13.6,0-24,10.4-24,24c0,13.6,10.4,24,24,24c13.6,0,24-10.4,24-24C341.6,132.8,331.2,122.4,317.6,122.4z
			 M317.6,154.4c-4.8,0-8-3.2-8-8c0-4.8,3.2-8,8-8s8,3.2,8,8C325.6,151.2,322.4,154.4,317.6,154.4z"/>
	</g>
</g>
<g>
	<g>
		<path d="M317.6,213.6c-13.6,0-24,10.4-24,24c0,13.6,10.4,24,24,24c13.6,0,24-10.4,24-24C341.6,224,330.4,213.6,317.6,213.6z
			 M317.6,245.6c-4.8,0-8-3.2-8-8s3.2-8,8-8s8,3.2,8,8S321.6,245.6,317.6,245.6z"/>
	</g>
</g>
<g>
	<g>
		<path d="M276,168c-13.6,0-24,10.4-24,24c0,13.6,10.4,24,24,24c13.6,0,24-10.4,24-24C300,178.4,288.8,168,276,168z M276,200
			c-4.8,0-8-3.2-8-8s3.2-8,8-8s8,3.2,8,8S280,200,276,200z"/>
	</g>
</g>
<g>
	<g>
		<path d="M359.2,168c-13.6,0-24,10.4-24,24c0,13.6,10.4,24,24,24c13.6,0,24-10.4,24-24C383.2,178.4,372.8,168,359.2,168z
			 M359.2,200c-4.8,0-8-3.2-8-8s3.2-8,8-8s8,3.2,8,8S364,200,359.2,200z"/>
	</g>
</g>
<g>
	<g>
		<path d="M198.4,222.4h-19.2c-4.8,0-8,3.2-8,8s3.2,8,8,8h19.2c4.8,0,8-3.2,8-8S202.4,222.4,198.4,222.4z"/>
	</g>
</g>
<g>
	<g>
		<path d="M244,222.4h-19.2c-4.8,0-8,3.2-8,8s3.2,8,8,8H244c4.8,0,8-3.2,8-8S248,222.4,244,222.4z"/>
	</g>
</g>
<g>
</g>
<g>
</g>
<g>
</g>
<g>
</g>
<g>
</g>
<g>
</g>
<g>
</g>
<g>
</g>
<g>
</g>
<g>
</g>
<g>
</g>
<g>
</g>
<g>
</g>
<g>
</g>
<g>
</g>
</svg>
